HIERARCHY
ROOT Hips
{
     OFFSET 35.44390 96.68280 -29.28320
     CHANNELS 6 Xposition Yposition Zposition Zrotation Xrotation Yrotation
     JOINT Spine
     {
          OFFSET 0.00000 11.89050 0.00000
          CHANNELS 3 Zrotation Xrotation Yrotation
          JOINT Spine1
          {
               OFFSET 0.00000 25.65740 0.12766
               CHANNELS 3 Zrotation Xrotation Yrotation
               JOINT HEad
               {
                    OFFSET 0.00000 8.73416 0.01134
                    CHANNELS 3 Zrotation Xrotation Yrotation
                    End Site
                    {
                         OFFSET -0.29000 12.77420 2.51395
                    }
               }
               JOINT LeftShoulder1
               {
                    OFFSET 8.99000 -0.36225 -0.22000
                    CHANNELS 3 Zrotation Xrotation Yrotation
                    JOINT LeftArm
                    {
                         OFFSET 10.28270 -0.00338 0.32212
                         CHANNELS 3 Zrotation Xrotation Yrotation
                         JOINT LeftForeArm
                         {
                              OFFSET 32.76690 0.09914 -1.42434
                              CHANNELS 3 Zrotation Xrotation Yrotation
                              JOINT LeftHand
                              {
                                   OFFSET 27.56430 0.08536 1.02216
                                   CHANNELS 3 Zrotation Xrotation Yrotation
                                   End Site
                                   {
                                        OFFSET 16.74430 -0.60000 1.50291
                                   }
                              }
                         }
                    }
               }
               JOINT RightShoulder
               {
                    OFFSET -8.99000 -0.36225 -0.22000
                    CHANNELS 3 Zrotation Xrotation Yrotation
                    JOINT RightArm
                    {
                         OFFSET -10.28270 -0.00338 0.32212
                         CHANNELS 3 Zrotation Xrotation Yrotation
                         JOINT RightForeArm
                         {
                              OFFSET -32.89710 0.09914 -1.42434
                              CHANNELS 3 Zrotation Xrotation Yrotation
                              JOINT RightHand
                              {
                                   OFFSET -27.49210 0.08536 1.02216
                                   CHANNELS 3 Zrotation Xrotation Yrotation
                                   End Site
                                   {
                                        OFFSET -16.63120 -0.60000 1.50291
                                   }
                              }
                         }
                    }
               }
          }
     }
     JOINT LeftUpLeg
     {
          OFFSET 8.94580 -8.66707 0.10165
          CHANNELS 3 Zrotation Xrotation Yrotation
          JOINT LeftLeg
          {
               OFFSET 0.00000 -44.42270 1.37270
               CHANNELS 3 Zrotation Xrotation Yrotation
               JOINT LeftFoot
               {
                    OFFSET -0.25355 -42.09240 -1.46059
                    CHANNELS 3 Zrotation Xrotation Yrotation
                    JOINT LeftToes
                    {
                         OFFSET -0.04000 -4.41509 8.49910
                         CHANNELS 3 Zrotation Xrotation Yrotation
                         End Site
                         {
                              OFFSET 0.08000 -0.04745 9.77979
                         }
                    }
               }
          }
     }
     JOINT RightUpLeg
     {
          OFFSET -8.94580 -8.66707 0.10165
          CHANNELS 3 Zrotation Xrotation Yrotation
          JOINT RightLeg
          {
               OFFSET 0.00000 -44.42270 1.37270
               CHANNELS 3 Zrotation Xrotation Yrotation
               JOINT RightFoot
               {
                    OFFSET 0.25355 -42.09240 -1.46059
                    CHANNELS 3 Zrotation Xrotation Yrotation
                    JOINT RightToes
                    {
                         OFFSET 0.04000 -4.41509 8.49910
                         CHANNELS 3 Zrotation Xrotation Yrotation
                         End Site
                         {
                              OFFSET -0.08000 -0.13745 9.77979
                         }
                    }
               }
          }
     }
}
MOTION
Frames: 7
Frame Time: 0.01667
35.44390 96.68280 -29.28320 -8.69166 -4.82546 -33.39310 3.38055 6.60301 0.65853 3.36178 13.43060 1.44081 -7.93058 6.06341 12.22420 0.00000 0.00000 0.00000 -95.65710 -44.36950 -66.17160 11.08240 36.86760 -102.33600 35.31870 10.83270 7.36926 11.70820 0.88732 3.30249 77.08440 -3.36906 82.30340 -4.05387 28.94270 89.22710 3.41804 10.37990 9.06629 17.17050 -14.19920 8.14963 -5.52066 28.91910 16.27650 -3.03966 2.46061 0.23792 -21.09400 -20.07530 -14.28360 -6.38246 -2.45441 -1.61892 -1.52213 30.92340 3.26293 11.79700 -27.26040 1.80521 7.71869 25.50750 -17.71750 
35.37300 96.73060 -29.33630 -8.68345 -4.84631 -33.50170 3.40136 6.60322 0.61594 3.43459 13.42860 1.34246 -8.15590 6.07130 12.49240 0.00000 0.00000 0.00000 -96.71200 -45.24150 -66.81110 11.24910 37.03060 -102.54800 34.14790 10.80230 7.37989 11.55300 0.88339 3.32394 77.19060 -3.13971 82.37200 -4.30392 28.89760 89.28370 3.41984 10.38020 9.06769 17.24270 -13.97710 7.93330 -5.74531 28.54920 16.67280 -2.92242 2.69712 0.23214 -21.29900 -20.18250 -14.48830 -6.32832 -2.42676 -1.68428 -1.68653 30.86630 3.46915 12.21780 -27.35540 1.89140 7.84433 25.81730 -17.71010 
35.29160 96.77000 -29.40610 -8.67027 -4.85425 -33.64420 3.42641 6.60441 0.56600 3.51724 13.42810 1.22988 -8.43586 5.99175 12.84680 0.00000 0.00000 0.00000 -97.85120 -46.30440 -67.45390 11.31480 37.26890 -102.74300 32.71170 10.75650 7.36312 11.31120 0.87741 3.35917 77.37710 -2.88635 82.41460 -4.57443 28.85380 89.36870 3.48847 10.38750 9.05121 17.33680 -13.78360 7.78858 -5.95174 28.23430 16.99800 -2.78441 2.83534 0.22218 -21.36510 -20.23990 -14.52160 -6.26390 -2.45046 -1.75010 -1.85883 30.85760 3.70404 12.61160 -27.48160 1.97701 7.98809 26.15920 -17.73620 
35.20130 96.79510 -29.49270 -8.63567 -4.87502 -33.82550 3.44359 6.60748 0.51194 3.57223 13.43140 1.11519 -8.76727 5.91609 13.26730 0.00000 0.00000 0.00000 -98.67750 -47.39890 -67.88430 11.20700 37.47720 -102.75700 31.49960 10.69800 7.27341 11.05170 0.87134 3.40062 77.53480 -2.62904 82.42990 -4.80137 28.78740 89.43110 3.56173 10.39540 9.03623 17.40890 -13.61970 7.77442 -6.08282 28.01200 17.16820 -2.66933 2.84406 0.21179 -21.23450 -20.20330 -14.34650 -6.22271 -2.52809 -1.79118 -2.00559 30.91530 3.92868 12.82000 -27.58520 2.02697 8.08234 26.39460 -17.71990 
35.10400 96.79930 -29.59560 -8.59044 -4.92401 -34.03580 3.44963 6.61887 0.44956 3.58170 13.45170 0.99392 -9.11354 5.92312 13.71620 0.00000 0.00000 0.00000 -98.89820 -48.39890 -67.95400 10.91690 37.54190 -102.48600 30.83430 10.63260 7.09461 10.83430 0.86887 3.45505 77.60310 -2.37771 82.43720 -4.96791 28.68730 89.45230 3.60595 10.39990 9.02045 17.45550 -13.48560 7.88624 -6.12907 27.90970 17.17650 -2.61022 2.73350 0.20454 -20.92870 -20.06200 -14.01300 -6.20815 -2.64669 -1.76940 -2.08236 31.04880 4.06680 12.71260 -27.59700 2.00862 8.04348 26.35970 -17.55170 
35.00190 96.77880 -29.71260 -8.56099 -5.00678 -34.25090 3.44926 6.64288 0.37067 3.55844 13.49760 0.84844 -9.42282 6.01132 14.16610 0.00000 0.00000 0.00000 -98.43750 -49.24520 -67.62060 10.51430 37.40500 -101.94800 30.78210 10.57090 6.86607 10.68010 0.87246 3.53343 77.56530 -2.14594 82.44960 -5.07815 28.56490 89.43830 3.61551 10.40000 8.99497 17.50750 -13.37740 8.02721 -6.15990 27.92970 17.13020 -2.59975 2.53454 0.20030 -20.52020 -19.84410 -13.60440 -6.20269 -2.78019 -1.69037 -2.08053 31.26310 4.10415 12.27470 -27.51290 1.91902 7.86155 26.03040 -17.21810 
34.89860 96.73290 -29.84100 -8.56978 -5.11640 -34.44010 3.44669 6.68056 0.27002 3.53609 13.57020 0.66149 -9.64589 6.09312 14.60710 0.00000 0.00000 0.00000 -97.38300 -49.90990 -66.90550 10.12070 37.08320 -101.25900 31.31020 10.52640 6.65438 10.56510 0.88015 3.62949 77.43760 -1.94567 82.47450 -5.14534 28.44100 89.40710 3.60543 10.39770 8.96326 17.59940 -13.29710 8.06297 -6.27364 28.05010 17.18810 -2.55594 2.29459 0.19253 -20.14170 -19.65380 -13.20390 -6.18210 -2.90664 -1.63631 -2.05450 31.55330 4.13168 11.61560 -27.38570 1.78554 7.59047 25.50550 -16.78400 
